<?xml version="1.0" encoding="utf-8"?>
<!-- Generator: Adobe Illustrator 22.0.1, SVG Export Plug-In . SVG Version: 6.00 Build 0)  -->
<svg version="1.1" id="Layer_1" xmlns="http://www.w3.org/2000/svg" xmlns:xlink="http://www.w3.org/1999/xlink" x="0px" y="0px"
	 viewBox="0 0 349.3 47.5" style="enable-background:new 0 0 349.3 47.5;" xml:space="preserve">
<style type="text/css">
	.st0{fill:#FFFFFF;}
</style>
<g>
	<path class="st0" d="M14,38.7c0,1.7-0.7,3.2-2,4.4c-1.3,1.2-3,1.8-5,1.8c-2,0-3.7-0.6-5-1.8c-1.3-1.2-2-2.7-2-4.4v-6.9h4.9v9.6
		c0,1.6,0.7,2.4,2.1,2.4c1.4,0,2.1-0.8,2.1-2.4V34c0-2-0.5-3.8-1.5-5.3l-6.1-9.5c-1.1-1.6-1.6-3.5-1.6-5.5V7.9c0-1.7,0.7-3.2,2-4.4
		c1.3-1.2,3-1.8,5-1.8c2,0,3.6,0.6,5,1.8c1.3,1.2,2,2.7,2,4.4v6.9H9.1V5.2c0-1.6-0.7-2.4-2.1-2.4c-1.4,0-2.1,0.8-2.1,2.4v7.1
		c0,2,0.5,3.8,1.5,5.3l6.1,9.5c1.1,1.6,1.6,3.5,1.6,5.5V38.7z"/>
	<path class="st0" d="M32.4,20.1c0,1.7-0.7,3.2-2.1,4.4c-1.4,1.2-3.2,1.8-5.2,1.8h-2.1v17.2h1.5v1.1h-7.9v-1.1H18V3h-1.5V1.9H25
		c2,0,3.8,0.6,5.2,1.8c1.4,1.2,2.1,2.7,2.1,4.4V20.1z M27.5,22.8V5.5c0-0.7-0.2-1.3-0.7-1.7S25.7,3,25,3h-2.1v22.2H25
		c0.7,0,1.3-0.2,1.7-0.7S27.5,23.5,27.5,22.8z"/>
	<path class="st0" d="M49.7,44.6H34.5v-1.1H36V3h-1.5V1.9h15.2v12.8h-4.9V3h-4v18.5h5.8v1.1h-5.8v20.9h4V31.8h4.9V44.6z"/>
	<path class="st0" d="M67.4,44.6H52.2v-1.1h1.5V3h-1.5V1.9h15.2v12.8h-4.9V3h-4v18.5h5.8v1.1h-5.8v20.9h4V31.8h4.9V44.6z"/>
	<path class="st0" d="M85.7,38.4c0,1.7-0.7,3.2-2.1,4.4c-1.4,1.2-3.2,1.8-5.2,1.8h-8.5v-1.1h1.5V3h-1.5V1.9h8.5c2,0,3.8,0.6,5.2,1.8
		C85,5,85.7,6.5,85.7,8.2V38.4z M80.8,41.1V5.5c0-0.7-0.2-1.3-0.7-1.7S79.1,3,78.4,3h-2.1v40.5h2.1c0.7,0,1.3-0.2,1.7-0.7
		S80.8,41.8,80.8,41.1z"/>
	<path class="st0" d="M104.3,38.4c0,1.7-0.7,3.2-2.1,4.4c-1.4,1.2-3.2,1.8-5.2,1.8h-8.5v-1.1H90V3h-1.5V1.9H97c2,0,3.8,0.6,5.2,1.8
		c1.4,1.2,2.1,2.7,2.1,4.4V38.4z M99.5,41.1V5.5c0-0.7-0.2-1.3-0.7-1.7S97.7,3,97,3h-2.1v40.5H97c0.7,0,1.3-0.2,1.7-0.7
		S99.5,41.8,99.5,41.1z"/>
	<path class="st0" d="M122.7,44.6h-7.9v-1.1h1.5l-1.1-12.4h-4.4l-1.2,12.4h1.5v1.1h-4.6v-1.1h1.5l4.3-41.6h4.9l4,41.6h1.5V44.6z
		 M115.1,30.1l-2-23.1l-2.2,23.1H115.1z"/>
	<path class="st0" d="M142.2,14.7h-4.5V3h-2.2v40.5h1.5v1.1h-7.9v-1.1h1.5V3h-2.2v11.7h-4.5V1.9h18.3V14.7z"/>
	<path class="st0" d="M152.1,44.6h-7.9v-1.1h1.5V3h-1.5V1.9h7.9V3h-1.5v40.5h1.5V44.6z"/>
	<path class="st0" d="M169.9,3h-1.5v41.6h-3.9l-7.4-33.2v32.1h1.5v1.1H154v-1.1h1.5V3H154V1.9h6.2l6.6,29.7V3h-1.5V1.9h4.6V3z"/>
	<path class="st0" d="M187.3,38.7c0,1.7-0.7,3.2-2.1,4.4c-1.4,1.2-3.2,1.8-5.2,1.8c-2,0-3.7-0.6-5.2-1.8c-1.4-1.2-2.2-2.7-2.2-4.4
		V7.9c0-1.7,0.7-3.2,2.2-4.4c1.4-1.2,3.2-1.8,5.2-1.8c2,0,3.8,0.6,5.2,1.8c1.4,1.2,2.1,2.7,2.1,4.4v6.9h-4.9V5.2
		c0-0.7-0.2-1.3-0.7-1.7s-1.1-0.7-1.7-0.7c-0.7,0-1.3,0.2-1.7,0.7s-0.7,1.1-0.7,1.7v36.2c0,0.7,0.2,1.3,0.7,1.7s1.1,0.7,1.7,0.7
		c0.7,0,1.3-0.2,1.7-0.7s0.7-1.1,0.7-1.7V22.6h-2.4v-1.1h7.3V38.7z"/>
	<path class="st0" d="M214.4,44.6h-15.2v-1.1h1.5V3h-1.5V1.9h15.2v12.8h-4.9V3h-4v18.5h5.8v1.1h-5.8v20.9h4V31.8h4.9V44.6z"/>
	<path class="st0" d="M235.1,14.7h-4.5V3h-2.2v40.5h1.5v1.1H222v-1.1h1.5V3h-2.2v11.7h-4.5V1.9h18.3V14.7z"/>
	<path class="st0" d="M254.7,44.6h-8v-1.1h1.5V22.6h-4.9v20.9h1.5v1.1H237v-1.1h1.5V3H237V1.9h7.9V3h-1.5v18.5h4.9V3h-1.5V1.9h8V3
		h-1.5v40.5h1.5V44.6z"/>
	<path class="st0" d="M282.7,22.6h-1.5v16.1c0,1.7-0.7,3.2-2.1,4.4c-1.4,1.2-3.2,1.8-5.2,1.8c-2,0-3.7-0.6-5.2-1.8
		c-1.4-1.2-2.2-2.7-2.2-4.4v-11c0-2.6,1.4-4.5,4.3-5.7c-2.9-1.1-4.3-3-4.3-5.7V7.9c0-1.7,0.7-3.2,2.2-4.4c1.4-1.2,3.2-1.8,5.2-1.8
		c2,0,3.8,0.6,5.2,1.8c1.4,1.2,2.1,2.7,2.1,4.4v6.9h-4.9V5.2c0-0.7-0.2-1.3-0.7-1.7s-1.1-0.7-1.7-0.7c-0.7,0-1.3,0.2-1.7,0.7
		s-0.7,1.1-0.7,1.7v13.9c0,0.7,0.2,1.3,0.7,1.7s1.1,0.7,1.7,0.7h8.8V22.6z M276.3,41.4V22.6h-2.4c-0.7,0-1.3,0.2-1.7,0.7
		s-0.7,1.1-0.7,1.7v16.3c0,0.7,0.2,1.3,0.7,1.7s1.1,0.7,1.7,0.7c0.7,0,1.3-0.2,1.7-0.7S276.3,42.1,276.3,41.4z"/>
	<path class="st0" d="M310.9,3h-1.5v35.7c0,1.7-0.7,3.2-2.1,4.4c-1.4,1.2-3.2,1.8-5.2,1.8c-2,0-3.7-0.6-5.2-1.8
		c-1.4-1.2-2.1-2.7-2.1-4.4V3h-1.5V1.9h8V3h-1.5v38.4c0,0.7,0.2,1.3,0.7,1.7s1,0.7,1.7,0.7c0.7,0,1.3-0.2,1.7-0.7s0.7-1.1,0.7-1.7V3
		H303V1.9h7.9V3z"/>
	<path class="st0" d="M327.7,3l-10,40.5h5.2V31.8h4.5v12.8h-14.6v-1.1l10-40.5h-5.2v11.7h-4.5V1.9h14.6V3z"/>
	<path class="st0" d="M347.5,44.6h-8v-1.1h1.5V22.6h-4.9v20.9h1.5v1.1h-7.9v-1.1h1.5V3h-1.5V1.9h7.9V3h-1.5v18.5h4.9V3h-1.5V1.9h8V3
		H346v40.5h1.5V44.6z"/>
</g>
</svg>
